<svg xmlns="http://www.w3.org/2000/svg" xml:space="preserve" fill="#f7f7f7" style="enable-background:new 0 0 512 512" viewBox="0 0 512 512"><path d="M268.5 121.2c-4.1-1.4-8.7-.6-12.1 2.1l-97.9 77.6h-46.4c-12.3 0-22.2 9.9-22.2 22.2V289c0 12.3 9.9 22.2 22.2 22.2h46.4l97.9 77.6c3.4 2.7 8 3.5 12.1 2.1 9.4-3.2 16.2-12.2 16.2-22.7V143.8c0-10.5-6.8-19.4-16.2-22.6zM313.4 323.5c-2.3 0-4.7-.8-6.6-2.5-4.1-3.6-4.5-10-.9-14.1 12.4-14.1 19.2-32.1 19.2-50.9 0-18.7-6.8-36.8-19.2-50.9-3.6-4.1-3.2-10.5.9-14.1 4.1-3.6 10.5-3.2 14.1.9a96.95 96.95 0 0 1 24.2 64.1c0 23.6-8.6 46.4-24.2 64.1-2 2.2-4.7 3.4-7.5 3.4z"/><path d="M344.5 346.2c-2.2 0-4.5-.7-6.4-2.3-4.3-3.5-4.9-9.8-1.3-14.1 16.9-20.5 26.2-46.5 26.2-73.1 0-27.3-9.7-53.7-27.3-74.4-3.6-4.2-3.1-10.5 1.1-14.1 4.2-3.6 10.5-3.1 14.1 1.1 20.7 24.3 32.1 55.4 32.1 87.4 0 31.3-10.9 61.8-30.8 85.9-1.9 2.4-4.8 3.6-7.7 3.6z"/><path d="M374.6 370.7c-2.2 0-4.5-.7-6.4-2.3-4.3-3.5-4.9-9.8-1.3-14.1 22.7-27.5 35.2-62.3 35.2-98 0-36-12.7-71-35.7-98.6-3.5-4.2-3-10.5 1.3-14.1 4.2-3.5 10.5-3 14.1 1.3 26 31.2 40.3 70.7 40.3 111.4 0 40.3-14.1 79.6-39.7 110.7-2 2.4-4.9 3.7-7.8 3.7z"/></svg>