<svg xmlns="http://www.w3.org/2000/svg" xml:space="preserve" id="Lager_1" x="0" y="0" style="enable-background:new 0 0 131.4 97.5" version="1.1" viewBox="0 0 131.4 97.5"><style>.st0{fill:#607380}.st1{fill:#808b96}</style><path d="M127.3 31.4c-2.7 6-9.7 16.1-17.1 21.1-10.7 7.1-15.9 5.5-19.3.5-3.3-5-3.5-11.5 7.1-18.6 7.6-5.1 20.2-7 27-7 .6 0 2.4 3.6 2.3 4z" class="st0"/><path d="M109.3 36.7c-1.6-3.7-6.7-23.4-6.7-23.4C102.6 6 93 0 81.2 0S60.8 8.2 59.8 13.3C58.7 18.4 53 29.8 53 29.8L50.8 33c-2.2 3.2-10.5 11.5-10.5 18.8 0 15 16.9 27.1 37.7 27.1 20.8 0 37.7-12.1 37.7-27.1 0-5.6-4.8-11.5-6.4-15.1z" class="st1"/><ellipse cx="31.9" cy="75.3" class="st1" rx="37" ry="5.1" transform="rotate(-36.038 31.867 75.328)"/><ellipse cx="30.1" cy="69.2" class="st1" rx="37" ry="5.1" transform="rotate(-36.038 30.088 69.174)"/><path d="M106.3 15.2c0 1.4-2.7 2.6-4.3 2.6s-2.6-1.1-2.6-2.6 1-2.6 2.6-2.6 4.3 1.1 4.3 2.6z" style="fill:#eee97c"/><circle cx="88.9" cy="15" r="3.4" style="fill:#1a161a"/><circle cx="88.9" cy="13.6" r="1" style="fill:#fff"/><path d="M34.7 61.1s3.5-19.7 11.9-29.4 13.8-9.6 18.3-5.7 6.5 10.2-1.9 19.8-28.3 15.3-28.3 15.3z" class="st0"/><path d="M102.5 16.4c-1.6 0-2.9-.6-3-.9 0-.1.1-.1.2-.1.2 0 .5.1.9.1.6.1 1.5.3 2.4.3h.5c1.2 0 2.2-.3 2.7-.4h.2s-1.4.9-3.4.9c-.2.1-.4.1-.5.1z" style="fill:#ddd54a"/><path d="M99.7 15.3c.2 0 .5.1.9.1.6.1 1.5.3 2.4.3h.5c1.2 0 2.2-.3 2.7-.4h.2c-.1.1-1.5.9-3.4.9h-.4c-1.6 0-2.9-.6-3-.9v-.1c-.1.2 0 .1.1.1m0 0c-.1 0-.2 0-.2.1-.1.2 1.2 1 3 1h.4c2-.1 3.5-.9 3.4-1-.1 0-1.3.4-2.9.4h-.5c-1.5-.1-2.8-.5-3.2-.5z" style="fill:#ded549"/><path d="m116.713 24.12 4.67-2.71 9.94 17.125-4.67 2.71z"/><circle cx="117.9" cy="20.7" r="5" class="st0"/><path d="M128.3 32.2c-.1.2-6.6 0-6.8-.3-.2-.3 2.1-6.5 2.5-6.3.5.2 4.4 6.3 4.3 6.6z" class="st0"/></svg>